# xmcd CD database file
#
# Track frame offsets:
#	150
#	16677
#	30294
#	43578
#	58715
#	71954
#	88376
#	103857
#	118016
#	132126
#	147169
#	163458
#	177153
#	190118
#	204932
#	219372
#
# Disc length: 3112 seconds
#
# Revision: 0
# Processed by: cddbd v1.5.1PL2 Copyright (c) Steve Scherf et al.
# Submitted via: CDex 1.51
#
DISCID=e40c2610
DTITLE=Beny More - Solo Éxitos
DYEAR=2001
DGENRE=Salsa
TTITLE0=Mata Siguaraya
TTITLE1=Bonito y Sabroso
TTITLE2=Como fue
TTITLE3=Que bueno baila usted
TTITLE4=San Fernando
TTITLE5=Mucho Corazón
TTITLE6=Donde estabas tú
TTITLE7=Maracaibo Oriental
TTITLE8=Alma libre
TTITLE9=Santa Isabel de las Lajas
TTITLE10=Paquito e'che
TTITLE11=Como arrullo de palmas
TTITLE12=El bobo de la yuca
TTITLE13=Esta noche corazón
TTITLE14=Anabacoa
TTITLE15=Cienfuegos
EXTD=YEAR: 2001
EXTT0=
EXTT1=
EXTT2=
EXTT3=
EXTT4=
EXTT5=
EXTT6=
EXTT7=
EXTT8=
EXTT9=
EXTT10=
EXTT11=
EXTT12=
EXTT13=
EXTT14=
EXTT15=
PLAYORDER=
